<svg width="130" height="36" viewBox="0 0 130 36" fill="none" xmlns="http://www.w3.org/2000/svg">
<path d="M35.5 18C35.5 27.665 27.665 35.5 18 35.5C8.33501 35.5 0.5 27.665 0.5 18C0.5 8.33502 8.33501 0.5 18 0.5C27.665 0.5 35.5 8.33502 35.5 18Z" stroke="#CC4533"/>
<path d="M14.7654 14.4023L16.0273 15.6643L15.1365 16.554L13.8757 15.2931C13.8014 15.2189 13.7272 15.2189 13.5787 15.2189C13.5045 15.2189 13.4303 15.2189 13.356 15.2931L8.60952 20.0396C8.53529 20.1139 8.46106 20.2623 8.46106 20.3366C8.46106 20.485 8.53529 20.5593 8.60952 20.6335L13.356 25.38C13.4303 25.4542 13.5045 25.4542 13.5787 25.4542C13.7272 25.4542 13.8014 25.4542 13.8757 25.38L18.6222 20.6335C18.6964 20.5593 18.7707 20.485 18.7707 20.3366C18.7707 20.2623 18.6964 20.1139 18.6222 20.0396L17.1386 18.5561L18.0294 17.6664L19.513 19.1499C19.8842 19.5211 20.0326 19.8912 20.0326 20.3366C20.0326 20.782 19.8842 21.2274 19.513 21.5232L14.7654 26.2708C14.4695 26.5677 14.0241 26.7893 13.5787 26.7893C13.2076 26.7893 12.7633 26.5677 12.3921 26.2708L7.71872 21.5232C7.34866 21.2274 7.2002 20.782 7.2002 20.3366C7.2002 19.8912 7.34866 19.5211 7.71872 19.1499L12.3921 14.4023C12.7633 14.1065 13.2076 13.958 13.5787 13.958C14.0241 13.958 14.4695 14.1065 14.7654 14.4023Z" fill="#CC4533"/>
<path d="M22.1066 8.3204L25.6676 11.8072C25.9646 12.103 26.113 12.5484 26.113 12.9196C26.113 13.2907 25.9646 13.6619 25.6676 13.9577L25.0749 14.5516L24.1841 13.6619L24.7779 13.068C24.8522 12.9938 24.8522 12.9938 24.8522 12.9196C24.8522 12.8453 24.8522 12.7711 24.7779 12.6969L21.217 9.21009C21.217 9.13586 21.1427 9.13586 21.0685 9.13586C20.9943 9.13586 20.92 9.13586 20.92 9.21009L17.359 12.6969C17.359 12.7711 17.2848 12.8453 17.2848 12.9196C17.2848 12.9938 17.359 12.9938 17.359 13.068L20.92 16.629C20.92 16.629 20.9943 16.7033 21.0685 16.7033C21.1427 16.7033 21.217 16.629 21.217 16.629L22.1066 15.7382L22.9974 16.629L22.1066 17.5187C21.8108 17.8157 21.4397 17.9641 21.0685 17.9641C20.6973 17.9641 20.3262 17.8157 20.0303 17.5187L16.4693 13.9577C16.1724 13.6619 16.0239 13.2907 16.0239 12.9196C16.0239 12.5484 16.1724 12.103 16.4693 11.8072L20.0303 8.3204C20.3262 8.02347 20.6973 7.875 21.0685 7.875C21.4397 7.875 21.8108 8.02347 22.1066 8.3204Z" fill="#CC4533"/>
<path d="M22.1827 12.9179L28.4138 19.1491C28.7108 19.4461 28.8592 19.8904 28.8592 20.2615C28.8592 20.7069 28.7108 21.1523 28.4138 21.4482L22.1827 27.6793C21.8857 27.9763 21.4414 28.1247 20.996 28.1247C20.6249 28.1247 20.1806 27.9763 19.8836 27.6793L17.1381 25.0091L18.0289 24.0441L20.7733 26.7885C20.8476 26.8628 20.9218 26.8628 20.996 26.8628C21.1445 26.8628 21.2187 26.8628 21.293 26.7885L27.523 20.5585C27.5973 20.4842 27.5973 20.41 27.5973 20.2615C27.5973 20.1873 27.5973 20.1131 27.523 20.0388L21.293 13.8087C21.2187 13.7345 21.1445 13.7345 20.996 13.7345C20.9218 13.7345 20.8476 13.7345 20.7733 13.8087L19.8836 14.6242L18.9928 13.7345L19.8836 12.9179C20.1806 12.621 20.6249 12.3994 20.996 12.3994C21.4414 12.3994 21.8857 12.621 22.1827 12.9179ZM15.2102 23.0802L13.6524 21.4482C13.3555 21.1523 13.1328 20.7069 13.1328 20.2615C13.1328 19.8904 13.3555 19.4461 13.6524 19.1491L17.065 15.6624L18.0289 16.5521L14.5432 20.0388C14.469 20.1131 14.469 20.1873 14.469 20.2615C14.469 20.41 14.469 20.4842 14.5432 20.5585L16.101 22.1905L15.2102 23.0802Z" fill="#CC4533"/>
<path d="M51.44 18.816H50.688V24H49.36V12.8H50.688V18.016L51.408 17.792L55.168 12.8H56.704L52.96 17.616L52.288 18.144L53.104 18.784L57.2 24H55.52L51.44 18.816ZM58.9976 16H59.8776L60.1176 16.96H60.1816C60.427 16.5867 60.7416 16.304 61.1256 16.112C61.5203 15.9093 61.9683 15.808 62.4696 15.808C63.5363 15.808 64.331 16.1227 64.8536 16.752C65.3763 17.3813 65.6376 18.4107 65.6376 19.84C65.6376 20.512 65.547 21.12 65.3656 21.664C65.195 22.1973 64.9496 22.6507 64.6296 23.024C64.3096 23.3973 63.9203 23.6853 63.4616 23.888C63.0136 24.0907 62.5123 24.192 61.9576 24.192C61.563 24.192 61.2483 24.1653 61.0136 24.112C60.7896 24.0693 60.5443 23.9893 60.2776 23.872V27.2H58.9976V16ZM62.2296 16.928C61.6856 16.928 61.2536 17.072 60.9336 17.36C60.6243 17.6373 60.4056 18.064 60.2776 18.64V22.608C60.4696 22.7573 60.6883 22.8747 60.9336 22.96C61.179 23.0347 61.5043 23.072 61.9096 23.072C62.6456 23.072 63.227 22.8 63.6536 22.256C64.091 21.7013 64.3096 20.8907 64.3096 19.824C64.3096 19.3867 64.2723 18.992 64.1976 18.64C64.123 18.2773 64.0003 17.9733 63.8296 17.728C63.6696 17.472 63.4563 17.2747 63.1896 17.136C62.9336 16.9973 62.6136 16.928 62.2296 16.928ZM72.6459 19.264L72.6939 18.272H72.6459L71.9899 19.296L68.3899 24H67.6539V16H68.9339V20.88L68.8859 21.824H68.9499L69.5739 20.832L73.1739 16H73.9259V24H72.6459V19.264ZM81.2043 17.12H77.6683V24H76.3883V16H82.4843V24H81.2043V17.12ZM90.0548 17.12H87.5428V24H86.2628V17.12H83.7508V16H90.0548V17.12ZM90.6278 20C90.6278 18.6453 90.9264 17.6107 91.5238 16.896C92.1318 16.1707 93.0011 15.808 94.1318 15.808C94.7291 15.808 95.2464 15.9093 95.6838 16.112C96.1318 16.304 96.4998 16.5867 96.7878 16.96C97.0758 17.3227 97.2891 17.7653 97.4278 18.288C97.5664 18.8 97.6358 19.3707 97.6358 20C97.6358 21.3547 97.3318 22.3947 96.7238 23.12C96.1264 23.8347 95.2624 24.192 94.1318 24.192C93.5344 24.192 93.0118 24.096 92.5638 23.904C92.1264 23.7013 91.7638 23.4187 91.4758 23.056C91.1878 22.6827 90.9744 22.24 90.8358 21.728C90.6971 21.2053 90.6278 20.6293 90.6278 20ZM91.9557 20C91.9557 20.4053 91.9931 20.7947 92.0678 21.168C92.1531 21.5413 92.2811 21.8667 92.4518 22.144C92.6224 22.4213 92.8464 22.6453 93.1238 22.816C93.4011 22.9867 93.7371 23.072 94.1318 23.072C95.5824 23.0827 96.3078 22.0587 96.3078 20C96.3078 19.584 96.2651 19.1893 96.1798 18.816C96.1051 18.4427 95.9824 18.1173 95.8118 17.84C95.6411 17.5627 95.4171 17.344 95.1398 17.184C94.8624 17.0133 94.5264 16.928 94.1318 16.928C92.6811 16.9173 91.9557 17.9413 91.9557 20ZM105.11 20.896H100.982L99.8619 24H98.5499L102.79 12.624H103.398L107.654 24H106.262L105.11 20.896ZM101.414 19.744H104.71L103.462 16.336L103.062 14.64H103.046L102.646 16.368L101.414 19.744ZM109.141 12.912C109.547 12.816 109.984 12.752 110.453 12.72C110.923 12.688 111.387 12.672 111.845 12.672C112.336 12.672 112.832 12.72 113.333 12.816C113.845 12.912 114.309 13.088 114.725 13.344C115.141 13.6 115.477 13.952 115.733 14.4C116 14.848 116.133 15.4187 116.133 16.112C116.133 16.7947 116.011 17.3707 115.765 17.84C115.52 18.3093 115.195 18.6933 114.789 18.992C114.384 19.28 113.92 19.488 113.397 19.616C112.875 19.744 112.336 19.808 111.781 19.808C111.728 19.808 111.637 19.808 111.509 19.808C111.392 19.808 111.264 19.808 111.125 19.808C110.997 19.7973 110.869 19.7867 110.741 19.776C110.613 19.7653 110.523 19.7547 110.469 19.744V24H109.141V12.912ZM111.877 13.824C111.6 13.824 111.333 13.8293 111.077 13.84C110.821 13.8507 110.619 13.8773 110.469 13.92V18.56C110.523 18.5813 110.608 18.5973 110.725 18.608C110.843 18.608 110.965 18.6133 111.093 18.624C111.221 18.624 111.344 18.624 111.461 18.624C111.579 18.624 111.664 18.624 111.717 18.624C112.08 18.624 112.437 18.592 112.789 18.528C113.152 18.4533 113.477 18.3253 113.765 18.144C114.053 17.9627 114.283 17.7067 114.453 17.376C114.635 17.0453 114.725 16.624 114.725 16.112C114.725 15.6747 114.64 15.312 114.469 15.024C114.309 14.7253 114.091 14.4907 113.813 14.32C113.547 14.1387 113.243 14.0107 112.901 13.936C112.56 13.8613 112.219 13.824 111.877 13.824ZM126.687 16.48L126.847 14.8H126.767L126.159 16.336L123.247 21.392H122.847L119.759 16.32L119.183 14.8H119.103L119.327 16.464V24H118.079V12.8H119.071L122.575 18.528L123.103 19.776H123.135L123.631 18.496L126.975 12.8H128.015V24H126.687V16.48Z" fill="#BF4130"/>
</svg>
